<svg width="64" height="64" viewBox="0 0 64 64" fill="none" xmlns="http://www.w3.org/2000/svg">
  <!-- Gradient Definition -->
  <defs>
    <linearGradient id="dayaaGradient" x1="0%" y1="0%" x2="100%" y2="100%">
      <stop offset="0%" style="stop-color:#0F69F3;stop-opacity:1" />
      <stop offset="100%" style="stop-color:#170AB5;stop-opacity:1" />
    </linearGradient>
  </defs>

  <!-- Rounded Square Background -->
  <rect width="64" height="64" rx="14" fill="url(#dayaaGradient)"/>

  <!-- Letter 'd' (lowercase) with modern design -->
  <path d="M 38 17 L 38 47 L 31 47 L 31 43 C 29 46 26 47.5 22 47.5 C 16 47.5 12 43 12 35 C 12 27 16 22.5 22 22.5 C 26 22.5 29 24 31 27 L 31 17 Z M 22.5 41 C 26 41 29 38.5 29 35 C 29 31.5 26 29 22.5 29 C 19 29 16 31.5 16 35 C 16 38.5 19 41 22.5 41 Z" fill="white"/>

  <!-- Small heart accent (donation symbol) -->
  <path d="M 51 21 C 51 19.3 49.7 18 48 18 C 46.8 18 45.8 18.6 45.2 19.6 C 44.6 18.6 43.6 18 42.4 18 C 40.7 18 39.4 19.3 39.4 21 C 39.4 23.8 45.2 28 45.2 28 C 45.2 28 51 23.8 51 21 Z" fill="white" opacity="0.85"/>
</svg>
