<svg width="64" height="64" viewBox="0 0 64 64" fill="none" xmlns="http://www.w3.org/2000/svg">
  <rect width="64" height="64" rx="12" fill="url(#paint0_linear)"/>
  <path d="M32 16C28.7 16 26 18.7 26 22C26 24.4 27.3 26.5 29.2 27.6V30H34.8V27.6C36.7 26.5 38 24.4 38 22C38 18.7 35.3 16 32 16ZM30 32V34H34V32H30ZM30 36V38C30 39.1 30.9 40 32 40C33.1 40 34 39.1 34 38V36H30Z" fill="white"/>
  <path d="M42 24H40C40 28.4 36.4 32 32 32C27.6 32 24 28.4 24 24H22C22 29.2 26.1 33.5 31.2 34V38H28V40H36V38H32.8V34C37.9 33.5 42 29.2 42 24Z" fill="white" opacity="0.7"/>
  <circle cx="32" cy="22" r="2" fill="white"/>
  <defs>
    <linearGradient id="paint0_linear" x1="0" y1="0" x2="64" y2="64" gradientUnits="userSpaceOnUse">
      <stop stop-color="#0F69F3"/>
      <stop offset="1" stop-color="#170AB5"/>
    </linearGradient>
  </defs>
</svg>
